<?xml version="1.0" encoding="UTF-8" standalone="no"?>
<svg
   xmlns:dc="http://purl.org/dc/elements/1.1/"
   xmlns:cc="http://creativecommons.org/ns#"
   xmlns:rdf="http://www.w3.org/1999/02/22-rdf-syntax-ns#"
   xmlns:svg="http://www.w3.org/2000/svg"
   xmlns="http://www.w3.org/2000/svg"
   xmlns:sodipodi="http://sodipodi.sourceforge.net/DTD/sodipodi-0.dtd"
   xmlns:inkscape="http://www.inkscape.org/namespaces/inkscape"
   data-name="Layer 24"
   id="Layer_24"
   viewBox="0 0 100 100"
   version="1.1"
   sodipodi:docname="DrainRepair.svg"
   inkscape:version="0.92.2 (5c3e80d, 2017-08-06)">
  <metadata
     id="metadata50">
    <rdf:RDF>
      <cc:Work
         rdf:about="">
        <dc:format>image/svg+xml</dc:format>
        <dc:type
           rdf:resource="http://purl.org/dc/dcmitype/StillImage" />
      </cc:Work>
    </rdf:RDF>
  </metadata>
  <defs
     id="defs48" />
  <sodipodi:namedview
     pagecolor="#ffffff"
     bordercolor="#666666"
     borderopacity="1"
     objecttolerance="10"
     gridtolerance="10"
     guidetolerance="10"
     inkscape:pageopacity="0"
     inkscape:pageshadow="2"
     inkscape:window-width="774"
     inkscape:window-height="794"
     id="namedview46"
     showgrid="false"
     inkscape:zoom="2.36"
     inkscape:cx="-18.855932"
     inkscape:cy="50"
     inkscape:window-x="292"
     inkscape:window-y="371"
     inkscape:window-maximized="0"
     inkscape:current-layer="Layer_24" />
  <title
     id="title41" />
  <path
     d="m 84.096034,9.8305085 c -8.434593,0 -14.208349,5.0023265 -20.046689,11.2084215 A 28.791282,29.813331 0 0 0 46.818493,14.1507 23.547109,24.382998 0 0 0 31.421809,18.537767 l -1.898752,-2.019656 -5.076255,5.350082 42.134213,43.603167 5.089172,-5.269831 -1.898752,-1.966155 A 23.611693,24.449874 0 0 0 74.008106,42.29213 28.029197,29.024194 0 0 0 68.841434,26.817018 c 4.998755,-5.350082 9.37751,-8.974762 15.228766,-8.974762 h 17.21794 V 9.8305085 Z M 66.581015,61.686177 28.102222,21.868193 29.535974,20.383545 68.014766,60.214904 Z M 67.872683,56.336095 33.281811,20.463796 a 21.183357,21.935336 0 0 1 13.420432,-3.62468 26.065862,26.991163 0 0 1 17.127519,7.597116 l 0.206667,0.214003 A 26.052945,26.977788 0 0 1 71.437687,42.425882 21.183357,21.935336 0 0 1 67.911433,56.32272 Z M 98.7048,15.18059 H 84.096034 c -6.690841,0 -11.431263,3.838684 -16.791685,9.362644 L 65.896431,22.964959 C 71.34727,17.226997 76.617276,12.465424 83.979784,12.465424 H 98.7048 Z M 38.19015,56.309345 a 5.2700058,5.4570835 0 1 0 -3.720004,-1.59165 5.2570891,5.4437083 0 0 0 3.720004,1.59165 z m -1.898752,-7.423239 a 2.6866696,2.7820426 0 1 1 0,3.93231 2.6737529,2.7686674 0 0 1 0,-3.93231 z m -4.830839,16.665505 a 5.2700058,5.4570835 0 1 0 -3.73292,1.605024 5.2829225,5.4704587 0 0 0 3.73292,-1.605024 z m -5.631672,-5.831589 a 2.6866696,2.7820426 0 1 1 3.797504,3.93231 2.751253,2.8489186 0 0 1 -3.797504,0 2.6866696,2.7820426 0 0 1 0,-3.93231 z m -12.29668,8.961387 a 5.2700058,5.4570835 0 1 0 7.452924,0 5.2312557,5.4169579 0 0 0 -7.452924,0 z m 5.631672,5.831589 a 2.6866696,2.7820426 0 1 1 0.749168,-1.97953 2.6866696,2.7820426 0 0 1 -0.749168,1.966155 z M 26.16472,43.857029 A 5.2700058,5.4570835 0 1 0 22.4318,42.26538 5.2570891,5.4437083 0 0 0 26.151804,43.843654 Z M 24.265968,36.43379 a 2.6866696,2.7820426 0 1 1 -0.787917,1.966156 2.6866696,2.7820426 0 0 1 0.775001,-1.979531 z m -4.856672,16.65213 a 5.2829225,5.4704587 0 1 0 -3.73292,1.59165 5.2829225,5.4704587 0 0 0 3.73292,-1.59165 z M 13.79054,47.281081 a 2.6866696,2.7820426 0 1 1 0,3.932311 2.6866696,2.7820426 0 0 1 0,-3.932311 z m -8.5637596,7.356363 a 5.2700058,5.4570835 0 1 0 3.7329207,1.605025 5.2312557,5.4169579 0 0 0 -3.7458374,-1.631775 z m 1.898752,7.356362 a 2.751253,2.8489186 0 0 1 -3.7975041,0 2.6866696,2.7820426 0 1 1 3.7975041,0 z M 46.521409,59.425767 a 5.2700058,5.4570835 0 1 0 7.452925,0 5.2829225,5.4704587 0 0 0 -7.465841,0.02675 z m 5.631673,5.831589 a 2.6866696,2.7820426 0 1 1 0,-3.93231 2.6995863,2.7954178 0 0 1 -0.01292,3.959061 z m -12.387097,3.424053 a 5.2700058,5.4570835 0 1 0 3.732921,1.605024 5.2312557,5.4169579 0 0 0 -3.732921,-1.605024 z m 1.898752,7.423238 a 2.751253,2.8489186 0 0 1 -3.797504,0 2.6866696,2.7820426 0 1 1 3.797504,0 z m -12.37418,3.410678 a 5.2700058,5.4570835 0 1 0 3.732921,1.605024 5.2312557,5.4169579 0 0 0 -3.720004,-1.578274 z m 1.898752,7.423238 a 2.751253,2.8489186 0 0 1 -3.797504,0 2.6866696,2.7820426 0 1 1 3.797504,0 z"
     id="path43"
     inkscape:connector-curvature="0"
     style="stroke-width:1.31439435;stroke:#f4511e;stroke-opacity:1;fill:#f4511e;fill-opacity:1" />
</svg>
