<?xml version="1.0" encoding="UTF-8" standalone="no"?>
<svg
   xmlns:dc="http://purl.org/dc/elements/1.1/"
   xmlns:cc="http://creativecommons.org/ns#"
   xmlns:rdf="http://www.w3.org/1999/02/22-rdf-syntax-ns#"
   xmlns:svg="http://www.w3.org/2000/svg"
   xmlns="http://www.w3.org/2000/svg"
   xmlns:sodipodi="http://sodipodi.sourceforge.net/DTD/sodipodi-0.dtd"
   xmlns:inkscape="http://www.inkscape.org/namespaces/inkscape"
   height="100px"
   id="Capa_1"
   style="enable-background:new 0 0 94 100;"
   version="1.1"
   viewBox="0 0 94 100"
   width="94px"
   xml:space="preserve"
   inkscape:version="0.91 r13725"
   sodipodi:docname="WaterLineSupplyLine.svg"><metadata
     id="metadata39"><rdf:RDF><cc:Work
         rdf:about=""><dc:format>image/svg+xml</dc:format><dc:type
           rdf:resource="http://purl.org/dc/dcmitype/StillImage" /></cc:Work></rdf:RDF></metadata><defs
     id="defs37" /><sodipodi:namedview
     pagecolor="#ffffff"
     bordercolor="#666666"
     borderopacity="1"
     objecttolerance="10"
     gridtolerance="10"
     guidetolerance="10"
     inkscape:pageopacity="0"
     inkscape:pageshadow="2"
     inkscape:window-width="686"
     inkscape:window-height="480"
     id="namedview35"
     showgrid="false"
     inkscape:zoom="2.36"
     inkscape:cx="47"
     inkscape:cy="50"
     inkscape:window-x="0"
     inkscape:window-y="0"
     inkscape:window-maximized="0"
     inkscape:current-layer="Capa_1" /><path
     d="M16.777,0.465c-0.076-0.62-1.098-0.62-1.174,0C13.051,21.041,0,25.28,0,39.58c0,8.836,7.412,15.998,16.189,15.998  c8.781,0,16.191-7.162,16.191-15.998C32.381,25.28,19.33,21.041,16.777,0.465z M78.398,0.465c-0.078-0.62-1.098-0.62-1.176,0  C74.672,21.041,61.621,25.28,61.621,39.58c0,8.836,7.41,15.998,16.191,15.998C86.59,55.578,94,48.416,94,39.58  C94,25.28,80.951,21.041,78.398,0.465z M46.414,44.888c-2.553,20.577-15.604,24.814-15.604,39.114C30.811,92.838,38.221,100,47,100  s16.189-7.162,16.189-15.998c0-14.3-13.049-18.537-15.602-39.114C47.51,44.267,46.492,44.267,46.414,44.888z"
     id="path3"
     style="fill:#f4511e;fill-opacity:1" /><g
     id="g5" /><g
     id="g7" /><g
     id="g9" /><g
     id="g11" /><g
     id="g13" /><g
     id="g15" /><g
     id="g17" /><g
     id="g19" /><g
     id="g21" /><g
     id="g23" /><g
     id="g25" /><g
     id="g27" /><g
     id="g29" /><g
     id="g31" /><g
     id="g33" /></svg>