<?xml version="1.0" encoding="UTF-8" standalone="no"?>
<svg
   xmlns:dc="http://purl.org/dc/elements/1.1/"
   xmlns:cc="http://creativecommons.org/ns#"
   xmlns:rdf="http://www.w3.org/1999/02/22-rdf-syntax-ns#"
   xmlns:svg="http://www.w3.org/2000/svg"
   xmlns="http://www.w3.org/2000/svg"
   xmlns:sodipodi="http://sodipodi.sourceforge.net/DTD/sodipodi-0.dtd"
   xmlns:inkscape="http://www.inkscape.org/namespaces/inkscape"
   enable-background="new -0.709 -0.709 141.732 141.732"
   height="141.732px"
   id="Livello_1"
   version="1.1"
   viewBox="-0.709 -0.709 141.732 141.732"
   width="141.732px"
   xml:space="preserve"
   inkscape:version="0.91 r13725"
   sodipodi:docname="WaterproofingSolutions.svg"><metadata
     id="metadata11"><rdf:RDF><cc:Work
         rdf:about=""><dc:format>image/svg+xml</dc:format><dc:type
           rdf:resource="http://purl.org/dc/dcmitype/StillImage" /></cc:Work></rdf:RDF></metadata><defs
     id="defs9" /><sodipodi:namedview
     pagecolor="#ffffff"
     bordercolor="#666666"
     borderopacity="1"
     objecttolerance="10"
     gridtolerance="10"
     guidetolerance="10"
     inkscape:pageopacity="0"
     inkscape:pageshadow="2"
     inkscape:window-width="686"
     inkscape:window-height="480"
     id="namedview7"
     showgrid="false"
     inkscape:zoom="1.6651145"
     inkscape:cx="70.865997"
     inkscape:cy="70.865997"
     inkscape:window-x="0"
     inkscape:window-y="0"
     inkscape:window-maximized="0"
     inkscape:current-layer="Livello_1" /><g
     id="Livello_105"
     style="fill:#f4511e;fill-opacity:1"><path
       d="M140.315,60.01C135.854,26.16,106.145,0,70.158,0S4.461,26.16,0,60.01h0.023c0.723-6.896,6.707-12.277,13.979-12.277   c7.275,0,13.262,5.381,13.982,12.277h0.146c0.726-6.896,6.707-12.277,13.981-12.277c7.276,0,13.26,5.381,13.982,12.277h0.146   c0.635-5.925,5.23-10.697,11.162-11.771v83.5H67.4c-0.027,1.572-1.334,2.84-2.945,2.84c-1.607,0-2.918-1.268-2.941-2.84H61.51   c0-0.004,0-0.007,0-0.011c0-1.598-1.318-2.891-2.947-2.891c-1.628,0-2.947,1.293-2.947,2.891c0,0.105,0.006,0.213,0.021,0.314   c0.183,4.599,4.058,8.271,8.82,8.271c4.873,0,8.824-3.838,8.844-8.577h0.002V48.416c5.523,1.353,9.728,5.95,10.331,11.596h0.146   c0.724-6.896,6.707-12.277,13.982-12.277c7.272,0,13.259,5.381,13.979,12.277h0.219c0.727-6.983,6.779-12.438,14.146-12.438   s13.421,5.451,14.144,12.438L140.315,60.01L140.315,60.01z"
       id="path4"
       style="fill:#f4511e;fill-opacity:1" /></g><g
     id="Livello_1_1_" /></svg>