<?xml version="1.0" encoding="UTF-8" standalone="no"?>
<!-- Created with Inkscape (http://www.inkscape.org/) -->

<svg
   xmlns:dc="http://purl.org/dc/elements/1.1/"
   xmlns:cc="http://creativecommons.org/ns#"
   xmlns:rdf="http://www.w3.org/1999/02/22-rdf-syntax-ns#"
   xmlns:svg="http://www.w3.org/2000/svg"
   xmlns="http://www.w3.org/2000/svg"
   xmlns:sodipodi="http://sodipodi.sourceforge.net/DTD/sodipodi-0.dtd"
   xmlns:inkscape="http://www.inkscape.org/namespaces/inkscape"
   width="212.75005mm"
   height="208.78305mm"
   viewBox="0 0 212.75005 208.78305"
   version="1.1"
   id="svg8"
   inkscape:version="0.92.2 (5c3e80d, 2017-08-06)"
   sodipodi:docname="new logo aquadrain.svg">
  <defs
     id="defs2">
    <linearGradient
       id="linearGradient841"
       spreadMethod="pad"
       gradientTransform="matrix(0,591.82605,591.82605,0,509.73505,121.46527)"
       gradientUnits="userSpaceOnUse"
       y2="0"
       x2="1"
       y1="0"
       x1="0">
      <stop
         id="stop837"
         offset="0"
         style="stop-opacity:1;stop-color:#eb5e34" />
      <stop
         id="stop839"
         offset="1"
         style="stop-opacity:1;stop-color:#f18834" />
    </linearGradient>
    <linearGradient
       id="linearGradient861"
       spreadMethod="pad"
       gradientTransform="matrix(0,497.91971,497.91971,0,523.47003,124.63868)"
       gradientUnits="userSpaceOnUse"
       y2="0"
       x2="1"
       y1="0"
       x1="0">
      <stop
         id="stop857"
         offset="0"
         style="stop-opacity:1;stop-color:#75c7cc" />
      <stop
         id="stop859"
         offset="1"
         style="stop-opacity:1;stop-color:#00a5aa" />
    </linearGradient>
    <linearGradient
       id="linearGradient881"
       spreadMethod="pad"
       gradientTransform="matrix(0,367.10196,367.10196,0,596.69415,189.27959)"
       gradientUnits="userSpaceOnUse"
       y2="0"
       x2="1"
       y1="0"
       x1="0">
      <stop
         id="stop877"
         offset="0"
         style="stop-opacity:1;stop-color:#eb5e34" />
      <stop
         id="stop879"
         offset="1"
         style="stop-opacity:1;stop-color:#f18834" />
    </linearGradient>
    <linearGradient
       id="linearGradient903"
       spreadMethod="pad"
       gradientTransform="matrix(139.99431,242.47725,242.47725,-139.99431,543.58582,323.89566)"
       gradientUnits="userSpaceOnUse"
       y2="0"
       x2="1"
       y1="0"
       x1="0">
      <stop
         id="stop897"
         offset="0"
         style="stop-opacity:1;stop-color:#08a9ae" />
      <stop
         id="stop899"
         offset="0.705882"
         style="stop-opacity:1;stop-color:#6cc4c9" />
      <stop
         id="stop901"
         offset="1"
         style="stop-opacity:1;stop-color:#6cc4c9" />
    </linearGradient>
    <linearGradient
       id="linearGradient923"
       spreadMethod="pad"
       gradientTransform="matrix(0,56.377052,56.377052,0,574.73969,387.15207)"
       gradientUnits="userSpaceOnUse"
       y2="0"
       x2="1"
       y1="0"
       x1="0">
      <stop
         id="stop919"
         offset="0"
         style="stop-opacity:1;stop-color:#eb5e34" />
      <stop
         id="stop921"
         offset="1"
         style="stop-opacity:1;stop-color:#f18834" />
    </linearGradient>
    <linearGradient
       id="linearGradient943"
       spreadMethod="pad"
       gradientTransform="matrix(0,31.180242,31.180242,0,530.4173,369.11432)"
       gradientUnits="userSpaceOnUse"
       y2="0"
       x2="1"
       y1="0"
       x1="0">
      <stop
         id="stop939"
         offset="0"
         style="stop-opacity:1;stop-color:#eb5e34" />
      <stop
         id="stop941"
         offset="1"
         style="stop-opacity:1;stop-color:#f18834" />
    </linearGradient>
    <linearGradient
       id="linearGradient963"
       spreadMethod="pad"
       gradientTransform="matrix(0,24.000515,24.000515,0,557.74207,342.03763)"
       gradientUnits="userSpaceOnUse"
       y2="0"
       x2="1"
       y1="0"
       x1="0">
      <stop
         id="stop959"
         offset="0"
         style="stop-opacity:1;stop-color:#eb5e34" />
      <stop
         id="stop961"
         offset="1"
         style="stop-opacity:1;stop-color:#f18834" />
    </linearGradient>
  </defs>
  <sodipodi:namedview
     id="base"
     pagecolor="#ffffff"
     bordercolor="#666666"
     borderopacity="1.0"
     inkscape:pageopacity="0.0"
     inkscape:pageshadow="2"
     inkscape:zoom="0.35"
     inkscape:cx="-65.095526"
     inkscape:cy="468.83635"
     inkscape:document-units="mm"
     inkscape:current-layer="layer1"
     showgrid="false"
     fit-margin-top="0"
     fit-margin-left="0"
     fit-margin-right="0"
     fit-margin-bottom="0"
     inkscape:window-width="1424"
     inkscape:window-height="737"
     inkscape:window-x="927"
     inkscape:window-y="3"
     inkscape:window-maximized="0" />
  <metadata
     id="metadata5">
    <rdf:RDF>
      <cc:Work
         rdf:about="">
        <dc:format>image/svg+xml</dc:format>
        <dc:type
           rdf:resource="http://purl.org/dc/dcmitype/StillImage" />
        <dc:title></dc:title>
      </cc:Work>
    </rdf:RDF>
  </metadata>
  <g
     inkscape:label="Layer 1"
     inkscape:groupmode="layer"
     id="layer1"
     transform="translate(-0.21426271,-64.096562)">
    <g
       transform="matrix(0.35277777,0,0,-0.35277777,-73.234069,315.72977)"
       inkscape:label="logo"
       id="g823">
      <g
         id="g825">
        <g
           id="g827">
          <g
             id="g833">
            <g
               id="g835">
              <path
                 inkscape:connector-curvature="0"
                 id="path843"
                 style="fill:url(#linearGradient841);stroke:none"
                 d="m 208.2,411.833 c 0,-138.337 94.172,-254.897 222.538,-290.368 v 0 C 335.884,165.711 270.272,260.82 270.272,371.03 v 0 c 0,152.441 125.511,276.017 280.337,276.017 v 0 c 118.323,0 219.518,-72.177 260.662,-174.253 v 0 C 782.781,610.06 660.001,713.291 512.852,713.291 v 0 C 344.597,713.291 208.2,578.324 208.2,411.833" />
            </g>
          </g>
        </g>
      </g>
      <g
         id="g845">
        <g
           id="g847">
          <g
             id="g853">
            <g
               id="g855">
              <path
                 inkscape:connector-curvature="0"
                 id="path863"
                 style="fill:url(#linearGradient861);stroke:none"
                 d="M 312.429,453.827 C 267.65,323.704 335.73,182.299 464.488,137.99 v 0 c 106.986,-36.816 222.192,4.994 283.786,94.828 v 0 C 688.812,171.236 597.796,145.805 512.563,175.136 v 0 C 394.672,215.706 332.504,345.659 373.708,465.397 v 0 c 31.49,91.507 114.241,150.559 204.132,155.212 v 0 c -10.253,1.307 -20.514,1.948 -30.694,1.949 v 0 C 444.395,622.565 348.06,557.368 312.429,453.827" />
            </g>
          </g>
        </g>
      </g>
      <g
         id="g865">
        <g
           id="g867">
          <g
             id="g873">
            <g
               id="g875">
              <path
                 inkscape:connector-curvature="0"
                 id="path883"
                 style="fill:url(#linearGradient881);stroke:none"
                 d="M 757.388,369.695 C 729.9,273.336 628.279,217.855 530.413,245.773 v 0 C 455.62,267.109 404.67,330.981 397.069,402.922 v 0 c -6.743,-91.904 52.251,-179.296 145.266,-205.83 v 0 c 106.354,-30.34 216.91,30.378 246.932,135.618 v 0 c 24.945,87.443 -13.564,178.104 -88.309,223.672 v 0 c 51.98,-45.073 76.303,-117.024 56.43,-186.687" />
            </g>
          </g>
        </g>
      </g>
      <g
         id="g885">
        <g
           id="g887">
          <g
             id="g893">
            <g
               id="g895">
              <path
                 inkscape:connector-curvature="0"
                 id="path905"
                 style="fill:url(#linearGradient903);stroke:none"
                 d="m 494.803,432.827 c -8.07,-41.511 -2.643,-95.094 69.489,-116.15 v 0 c 60.321,-14.944 126.886,27.848 130.283,90.339 v 0 c 3.396,48.905 -45.059,156.089 -67.924,192.225 v 0 C 596.764,493.959 507.784,487.166 494.803,432.827 M 505.765,358.5 c -22.46,33.703 -6.133,64.818 10.889,77.236 v 0 c 9.716,8.912 61.091,13.393 103.448,66.001 v 0 c 7.023,2.921 21.098,-77.938 8.848,-113.747 v 0 c -15.102,-42.289 -42.365,-57.533 -68.033,-57.534 v 0 c -22.915,-0.001 -44.559,12.147 -55.152,28.044" />
            </g>
          </g>
        </g>
      </g>
      <g
         id="g907">
        <g
           id="g909">
          <g
             id="g915">
            <g
               id="g917">
              <path
                 inkscape:connector-curvature="0"
                 id="path925"
                 style="fill:url(#linearGradient923);stroke:none"
                 d="m 573.333,443.461 c 11.299,-0.693 20.245,-9.615 20.245,-20.551 v 0 c 0,-11.388 -9.693,-20.62 -21.651,-20.62 v 0 c -11.956,0 -21.65,9.232 -21.65,20.62 v 0 c 0,6.011 2.718,11.404 7.026,15.173 v 0 c -7.361,-5.128 -12.161,-13.391 -12.161,-22.742 v 0 c 0,-15.568 13.251,-28.189 29.598,-28.189 v 0 c 16.346,0 29.597,12.621 29.597,28.189 v 0 c 0,15.567 -13.251,28.188 -29.597,28.188 v 0 c -0.475,0 -0.938,-0.046 -1.407,-0.068" />
            </g>
          </g>
        </g>
      </g>
      <g
         id="g927">
        <g
           id="g929">
          <g
             id="g935">
            <g
               id="g937">
              <path
                 inkscape:connector-curvature="0"
                 id="path945"
                 style="fill:url(#linearGradient943);stroke:none"
                 d="m 515.609,386.075 c -0.023,-0.249 -0.022,-0.494 -0.033,-0.742 v 0 c 0.912,5.895 6.029,10.155 11.767,9.623 v 0 c 5.975,-0.554 10.347,-6.088 9.765,-12.362 v 0 c -0.581,-6.272 -5.896,-10.909 -11.871,-10.356 v 0 c -3.153,0.293 -5.851,1.98 -7.618,4.425 v 0 c 2.333,-4.112 6.434,-7.033 11.341,-7.487 v 0 c 8.167,-0.757 15.433,5.581 16.228,14.158 v 0 c 0.794,8.576 -5.183,16.143 -13.351,16.9 v 0 c -0.444,0.041 -0.885,0.061 -1.323,0.061 v 0 c -7.615,0 -14.153,-6.11 -14.905,-14.22" />
            </g>
          </g>
        </g>
      </g>
      <g
         id="g947">
        <g
           id="g949">
          <g
             id="g955">
            <g
               id="g957">
              <path
                 inkscape:connector-curvature="0"
                 id="path965"
                 style="fill:url(#linearGradient963);stroke:none"
                 d="m 545.142,354.117 c -0.042,-6.628 5.566,-12.036 12.525,-12.079 v 0 c 0.203,-0.002 0.399,0.017 0.599,0.025 v 0 c -4.808,0.325 -8.593,4.147 -8.564,8.803 v 0 c 0.031,4.847 4.181,8.751 9.272,8.72 v 0 c 5.09,-0.032 9.192,-3.988 9.162,-8.835 v 0 c -0.016,-2.56 -1.187,-4.849 -3.032,-6.442 v 0 c 3.147,2.164 5.213,5.669 5.238,9.65 v 0 c 0.042,6.627 -5.566,12.035 -12.525,12.079 v 0 c -0.027,0 -0.056,0 -0.084,0 v 0 c -6.921,10e-4 -12.55,-5.32 -12.591,-11.921" />
            </g>
          </g>
        </g>
      </g>
    </g>
  </g>
</svg>
