<?xml version="1.0" encoding="UTF-8" standalone="no"?>
<svg
   xmlns:dc="http://purl.org/dc/elements/1.1/"
   xmlns:cc="http://creativecommons.org/ns#"
   xmlns:rdf="http://www.w3.org/1999/02/22-rdf-syntax-ns#"
   xmlns:svg="http://www.w3.org/2000/svg"
   xmlns="http://www.w3.org/2000/svg"
   xmlns:sodipodi="http://sodipodi.sourceforge.net/DTD/sodipodi-0.dtd"
   xmlns:inkscape="http://www.inkscape.org/namespaces/inkscape"
   enable-background="new 0 0 139 139"
   height="139px"
   id="Phone"
   version="1.1"
   viewBox="0 0 139 139"
   width="139px"
   xml:space="preserve"
   inkscape:version="0.91 r13725"
   sodipodi:docname="phone.svg"><metadata
     id="metadata3353"><rdf:RDF><cc:Work
         rdf:about=""><dc:format>image/svg+xml</dc:format><dc:type
           rdf:resource="http://purl.org/dc/dcmitype/StillImage" /></cc:Work></rdf:RDF></metadata><defs
     id="defs3351" /><sodipodi:namedview
     pagecolor="#ffffff"
     bordercolor="#666666"
     borderopacity="1"
     objecttolerance="10"
     gridtolerance="10"
     guidetolerance="10"
     inkscape:pageopacity="0"
     inkscape:pageshadow="2"
     inkscape:window-width="640"
     inkscape:window-height="480"
     id="namedview3349"
     showgrid="false"
     inkscape:zoom="1.6978417"
     inkscape:cx="69.5"
     inkscape:cy="69.5"
     inkscape:window-x="657"
     inkscape:window-y="412"
     inkscape:window-maximized="0"
     inkscape:current-layer="Phone" /><path
     d="M67.317,81.952c-9.284-7.634-15.483-17.054-18.742-22.414l-2.431-4.583c0.85-0.912,7.332-7.853,10.141-11.619  c3.53-4.729-1.588-9-1.588-9S40.296,19.933,37.014,17.076c-3.282-2.861-7.06-1.272-7.06-1.272  c-6.898,4.457-14.049,8.332-14.478,26.968C15.46,60.22,28.705,78.216,43.028,92.148c14.346,15.734,34.043,31.504,53.086,31.486  c18.634-0.425,22.508-7.575,26.965-14.473c0,0,1.59-3.775-1.268-7.06c-2.86-3.284-17.265-17.688-17.265-17.688  s-4.268-5.119-8.998-1.586c-3.525,2.635-9.855,8.496-11.38,9.917C84.171,92.749,73.582,87.104,67.317,81.952z"
     id="path3347"
     style="fill:#ffffff" /></svg>