<?xml version="1.0" encoding="UTF-8" standalone="no"?>
<!-- Created with Inkscape (http://www.inkscape.org/) -->

<svg
   xmlns:dc="http://purl.org/dc/elements/1.1/"
   xmlns:cc="http://creativecommons.org/ns#"
   xmlns:rdf="http://www.w3.org/1999/02/22-rdf-syntax-ns#"
   xmlns:svg="http://www.w3.org/2000/svg"
   xmlns="http://www.w3.org/2000/svg"
   xmlns:sodipodi="http://sodipodi.sourceforge.net/DTD/sodipodi-0.dtd"
   xmlns:inkscape="http://www.inkscape.org/namespaces/inkscape"
   width="85.727379mm"
   height="40.794445mm"
   viewBox="0 0 85.727379 40.794445"
   version="1.1"
   id="svg109"
   inkscape:version="0.92.2 (5c3e80d, 2017-08-06)"
   sodipodi:docname="background.svg">
  <defs
     id="defs103" />
  <sodipodi:namedview
     id="base"
     pagecolor="#ffffff"
     bordercolor="#666666"
     borderopacity="1.0"
     inkscape:pageopacity="0.0"
     inkscape:pageshadow="2"
     inkscape:zoom="1.4"
     inkscape:cx="77.477781"
     inkscape:cy="-31.728771"
     inkscape:document-units="mm"
     inkscape:current-layer="layer1"
     showgrid="false"
     fit-margin-top="0"
     fit-margin-left="0"
     fit-margin-right="0"
     fit-margin-bottom="0"
     inkscape:window-width="1206"
     inkscape:window-height="1043"
     inkscape:window-x="1119"
     inkscape:window-y="84"
     inkscape:window-maximized="0" />
  <metadata
     id="metadata106">
    <rdf:RDF>
      <cc:Work
         rdf:about="">
        <dc:format>image/svg+xml</dc:format>
        <dc:type
           rdf:resource="http://purl.org/dc/dcmitype/StillImage" />
        <dc:title></dc:title>
      </cc:Work>
    </rdf:RDF>
  </metadata>
  <g
     inkscape:label="Layer 1"
     inkscape:groupmode="layer"
     id="layer1"
     transform="translate(-20.886512,-100.61382)">
    <g
       transform="matrix(0.28170965,0,0,0.28162507,82.528329,117.32724)"
       id="g4"
       style="fill:#ff00ff;fill-opacity:0.07843138">
      <path
         style="fill:#ff00ff;fill-opacity:0.07843138"
         inkscape:connector-curvature="0"
         d="m 80.898,14.491 c -1.202,0 -2.377,0.475 -3.271,1.37 -0.335,0.335 -2.097,2.181 -4.837,5.061 -2.739,2.908 -6.402,6.822 -10.429,11.128 -7.856,8.416 -16.999,18.342 -23.038,25.359 -2.266,-1.594 -4.894,-2.433 -7.521,-2.433 -3.383,0 -6.766,1.314 -9.366,3.914 l -4.529,4.53 c -0.896,-0.42 -1.985,-0.28 -2.712,0.475 -0.923,0.923 -0.923,2.433 0,3.355 l 17.529,17.53 c 0.951,0.951 2.461,0.979 3.412,0.028 0.727,-0.727 0.866,-1.845 0.447,-2.74 l 4.529,-4.529 c 4.613,-4.613 5.116,-11.771 1.51,-16.915 6.989,-6.067 16.887,-15.126 25.331,-22.983 4.306,-3.998 8.221,-7.688 11.1,-10.429 2.908,-2.74 4.781,-4.501 5.117,-4.837 1.789,-1.79 1.761,-4.725 -0.028,-6.515 -0.895,-0.894 -2.07,-1.369 -3.244,-1.369 z m 0,1.594 c 0.755,0 1.51,0.308 2.097,0.895 1.202,1.202 1.23,3.076 0.028,4.278 -0.224,0.224 -2.153,2.069 -5.061,4.809 -2.88,2.74 -6.767,6.403 -11.072,10.429 -8.415,7.829 -18.286,16.887 -25.247,22.926 -0.168,-0.195 -0.336,-0.391 -0.504,-0.559 -0.027,-0.028 -0.027,-0.056 -0.056,-0.056 0,-0.028 -0.028,-0.028 -0.056,-0.057 0,0 0,0 -0.028,0 0,0 -0.028,-0.027 -0.056,-0.056 -0.111,-0.111 -0.252,-0.195 -0.363,-0.308 6.011,-6.962 15.125,-16.859 22.955,-25.248 3.998,-4.306 7.688,-8.22 10.429,-11.128 2.741,-2.908 4.585,-4.809 4.809,-5.033 0.587,-0.584 1.342,-0.92 2.125,-0.892 z M 31.802,56.57 c 2.432,-0.027 4.893,0.783 6.934,2.32 0.111,0.168 0.279,0.308 0.476,0.364 0.279,0.224 0.56,0.447 0.811,0.698 0.028,0.028 0.028,0.057 0.056,0.057 0.225,0.251 0.447,0.503 0.672,0.755 0.027,0.195 0.167,0.392 0.363,0.503 3.41,4.558 3.047,10.988 -1.146,15.183 l -4.39,4.39 -16.44,-16.413 4.418,-4.417 c 2.291,-2.293 5.254,-3.44 8.246,-3.44 z m 0.112,1.65 c -2.152,0 -4.333,0.812 -5.982,2.405 l -3.104,2.991 c -0.279,0.279 -0.279,0.811 0,1.118 0.307,0.28 0.838,0.308 1.118,0 l 3.075,-2.964 c 2.713,-2.628 7.074,-2.628 9.785,0 0.28,0.336 0.867,0.336 1.175,0.028 0.28,-0.308 0.252,-0.895 -0.112,-1.174 C 36.22,59.031 34.067,58.22 31.914,58.22 Z M 16.9,64.734 c 0.195,0 0.392,0.057 0.56,0.224 0.056,0.057 0.112,0.112 0.167,0.141 l 17.168,17.194 c 0.055,0.168 0.167,0.308 0.335,0.42 0.196,0.308 0.167,0.727 -0.112,1.007 -0.335,0.335 -0.838,0.307 -1.174,-0.028 L 16.313,66.16 c -0.335,-0.335 -0.335,-0.838 0,-1.174 0.167,-0.168 0.363,-0.223 0.587,-0.252 z"
         id="path2" />
    </g>
    <path
       d="m 40.886512,105.72585 c 0,-0.54331 -0.434005,-0.98551 -0.967757,-0.98551 h -3.719147 c -0.533743,0 -0.967757,0.4422 -0.967757,0.98551 0,0.50411 0.375035,0.9164 0.855497,0.97391 v 8.35409 c 0,0.90063 -0.71932,1.63316 -1.603743,1.63316 -0.884414,0 -1.603743,-0.73253 -1.603743,-1.63316 v -8.61774 c 0,-3.13809 -2.507057,-5.69113 -5.588617,-5.69113 -3.08157,0 -5.588627,2.55304 -5.588627,5.69113 v 8.32951 c -0.461339,0.0749 -0.816106,0.4793 -0.816106,0.96997 0,0.54353 0.434238,0.98551 0.967757,0.98551 h 3.719148 c 0.53352,0 0.967758,-0.44198 0.967758,-0.98551 0,-0.50366 -0.374356,-0.91524 -0.853682,-0.97368 v -8.3258 c 0,-0.90041 0.719562,-1.63316 1.603752,-1.63316 0.884182,0 1.603743,0.73275 1.603743,1.63316 v 8.61774 c 0,3.13809 2.507057,5.69113 5.588617,5.69113 3.081568,0 5.588625,-2.55304 5.588625,-5.69113 v -8.35803 c 0.460427,-0.0756 0.814282,-0.48 0.814282,-0.96997 z m -14.914607,10.00974 c 0,0.22377 -0.178752,0.4058 -0.398488,0.4058 h -3.719148 c -0.219735,0 -0.398487,-0.18203 -0.398487,-0.4058 0,-0.22377 0.178752,-0.40579 0.398487,-0.40579 h 3.719148 c 0.219512,0 0.398488,0.18202 0.398488,0.40579 z m 8.5117,4.42991 c -2.767551,0 -5.019355,-2.2931 -5.019355,-5.11142 v -8.61797 c 0,-1.22017 -0.974815,-2.21287 -2.173005,-2.21287 -1.198199,0 -2.173013,0.9927 -2.173013,2.21287 v 8.31397 H 22.27188 v -8.31397 c 0,-2.81832 2.251804,-5.11142 5.019365,-5.11142 2.767552,0 5.019355,2.2931 5.019355,5.11142 v 8.61774 c 0,1.22017 0.974815,2.21287 2.173005,2.21287 1.198199,0 2.173013,-0.9927 2.173013,-2.21287 v -8.34249 h 2.846342 v 8.34249 c 0,2.81855 -2.251795,5.11165 -5.019355,5.11165 z m 5.43515,-14.03385 h -3.719147 c -0.219735,0 -0.398487,-0.18203 -0.398487,-0.4058 0,-0.22377 0.178752,-0.4058 0.398487,-0.4058 h 3.719147 c 0.219743,0 0.398487,0.18203 0.398487,0.4058 0,0.22377 -0.178744,0.4058 -0.398487,0.4058 z"
       id="path2-1"
       inkscape:connector-curvature="0"
       style="fill:#b3b3b3;stroke-width:0.22978628;fill-opacity:0.15686275" />
    <g
       style="fill:#f4511e;fill-rule:evenodd;stroke:none;stroke-width:1;fill-opacity:0.07843138"
       transform="matrix(0.28876026,-0.30482039,0.28296753,0.31106048,-588.87515,-480.82971)"
       id="g20">
      <g
         transform="translate(136,2087)"
         id="g18"
         style="fill:#f4511e;fill-opacity:0.07843138">
        <path
           inkscape:connector-curvature="0"
           d="m 5.018,30.003 h 6 v -4 h -6 z m 7,2 h -8 c -0.552,0 -1,-0.447 -1,-1 v -6 c 0,-0.552 0.448,-1 1,-1 h 8 c 0.552,0 1,0.448 1,1 v 6 c 0,0.553 -0.448,1 -1,1 z"
           id="path6"
           style="fill:#f4511e;fill-opacity:0.07843138" />
        <path
           inkscape:connector-curvature="0"
           d="m 5.0178,18.0035 h 5 v -9 c 0,-0.553 0.448,-1 1,-1 h 11.04 v -1.552 l -3.56,-3.177 c -1.072,-0.856 -2.191,-1.271 -3.48,-1.271 h -4 c -3.309,0 -6,2.674 -6,5.96 z m 6,2 h -7 c -0.552,0 -1,-0.447 -1,-1 v -11.04 c 0,-4.389 3.589,-7.96 8,-7.96 h 4 c 1.743,0 3.304,0.57 4.771,1.744 l 3.935,3.51 c 0.212,0.189 0.334,0.461 0.334,0.746 v 3 c 0,0.553 -0.448,1 -1,1 h -11.04 v 9 c 0,0.553 -0.448,1 -1,1 z"
           id="path8"
           style="fill:#f4511e;fill-opacity:0.07843138" />
        <path
           inkscape:connector-curvature="0"
           d="m 15.0178,55.0035 h -3 c -0.552,0 -1,-0.447 -1,-1 0,-0.553 0.448,-1 1,-1 h 3 c 0.552,0 1,0.447 1,1 0,0.553 -0.448,1 -1,1"
           id="path10"
           style="fill:#f4511e;fill-opacity:0.07843138" />
        <path
           inkscape:connector-curvature="0"
           d="m 15.0178,51.0035 h -3 c -0.552,0 -1,-0.447 -1,-1 0,-0.553 0.448,-1 1,-1 h 3 c 0.552,0 1,0.447 1,1 0,0.553 -0.448,1 -1,1"
           id="path12"
           style="fill:#f4511e;fill-opacity:0.07843138" />
        <path
           inkscape:connector-curvature="0"
           d="m 5.0178,36.0035 v 3 c 0,1.654 1.346,3 3,3 1.654,0 3,-1.346 3,-3 v -3 z m 3,8 c -2.757,0 -5,-2.243 -5,-5 v -4 c 0,-0.553 0.448,-1 1,-1 h 8 c 0.552,0 1,0.447 1,1 v 4 c 0,2.757 -2.243,5 -5,5 z"
           id="path14"
           style="fill:#f4511e;fill-opacity:0.07843138" />
        <path
           inkscape:connector-curvature="0"
           d="m 5.0178,34.0035 h 7 c 0.552,0 1,0.447 1,1 v 20 c 0,1.654 1.346,3 3,3 1.654,0 3,-1.346 3,-3 v -26.065 c 0,-3.223 1.071,-6.376 2.992,-8.935 H 2.0178 v 4 h 10 c 0.552,0 1,0.447 1,1 v 6 c 0,0.553 -0.448,1 -1,1 h -7 z m 11,26 c -2.757,0 -5,-2.243 -5,-5 v -19 h -7 c -0.552,0 -1,-0.447 -1,-1 v -4 c 0,-0.553 0.448,-1 1,-1 h 7 v -4 h -10 c -0.552,0 -1,-0.447 -1,-1 v -6 c 0,-0.553 0.448,-1 1,-1 h 23.2 c 0.407,0 0.774,0.247 0.927,0.624 0.153,0.377 0.062,0.81 -0.23,1.093 -2.477,2.406 -3.897,5.765 -3.897,9.218 v 26.065 c 0,2.757 -2.243,5 -5,5 z"
           id="path16"
           style="fill:#f4511e;fill-opacity:0.07843138" />
      </g>
    </g>
    <path
       inkscape:connector-curvature="0"
       d="m 79.668217,100.62654 c -1.579699,-0.1059 -3.194699,0.4501 -4.403743,1.65917 -1.597349,1.5974 -2.012131,3.892 -1.32377,5.89536 l -8.189726,8.18995 c -0.96194,0.9708 -0.96194,2.55054 0,3.52133 0.970765,0.96197 2.550464,0.96197 3.521229,0 l 8.189726,-8.18995 c 2.003306,0.68838 4.297841,0.27358 5.895191,-1.32381 1.615,-1.61505 2.056256,-3.94495 1.34142,-5.96596 -0.114726,-0.30889 -0.582459,-0.41479 -0.820737,-0.18533 l -2.956421,2.9565 -1.915054,-0.54717 -0.547159,-1.91511 2.956421,-2.9565 c 0.229453,-0.23829 0.123552,-0.70604 -0.185328,-0.82077 -0.503033,-0.1765 -1.032541,-0.28241 -1.562049,-0.31771 z m -0.06178,0.98844 c 0.158853,0.009 0.30888,0.0618 0.458907,0.0883 l -2.515164,2.50641 c -0.123552,0.12355 -0.176502,0.32654 -0.132377,0.49422 l 0.714836,2.47111 c 0.04413,0.15885 0.176503,0.29123 0.335356,0.33536 l 2.471038,0.71486 c 0.167677,0.0441 0.370655,-0.009 0.494207,-0.13238 l 2.506339,-2.51524 c 0.238278,1.44736 -0.158853,2.97415 -1.279645,4.09498 -1.403196,1.40323 -3.450628,1.7386 -5.171529,1.02374 -0.176503,-0.0706 -0.397131,-0.0265 -0.529509,0.10591 l -8.383878,8.38411 c -0.591285,0.5913 -1.526749,0.5913 -2.118033,0 -0.591284,-0.5913 -0.591284,-1.52679 0,-2.11809 l 8.383879,-8.38411 c 0.132377,-0.13239 0.176503,-0.35302 0.105901,-0.52953 -0.714836,-1.72095 -0.37948,-3.76844 1.023716,-5.17167 0.997241,-1.0061 2.329836,-1.45619 3.635956,-1.36794 z"
       style="fill:#0000ff;fill-opacity:0.07843138;fill-rule:nonzero;stroke:none;stroke-width:0.24906842"
       id="path44" />
  </g>
</svg>
